<?xml version="1.0" encoding="iso-8859-1"?>
<!-- Generator: Adobe Illustrator 19.0.0, SVG Export Plug-In . SVG Version: 6.00 Build 0)  -->
<svg version="1.1" id="Layer_1" xmlns="http://www.w3.org/2000/svg" xmlns:xlink="http://www.w3.org/1999/xlink" x="0px" y="0px"
	 viewBox="0 0 512 512" style="enable-background:new 0 0 512 512;" xml:space="preserve">
<circle style="fill:#FFD55C;" cx="256" cy="256" r="256"/>
<rect x="133.417" y="114.678" style="fill:#FF6D3B;" width="160.041" height="215.007"/>
<g>
	<rect x="133.417" y="97.445" style="fill:#FFFFFF;" width="160.041" height="17.233"/>
	<rect x="153.801" y="133.969" style="fill:#FFFFFF;" width="83.34" height="3.373"/>
	<rect x="180.224" y="140.298" style="fill:#FFFFFF;" width="47.715" height="3.369"/>
	<rect x="173.188" y="146.63" style="fill:#FFFFFF;" width="99.857" height="3.369"/>
	<rect x="173.188" y="152.939" style="fill:#FFFFFF;" width="17.52" height="3.369"/>
	<rect x="153.801" y="168.564" style="fill:#FFFFFF;" width="39.837" height="3.373"/>
	<rect x="173.188" y="174.903" style="fill:#FFFFFF;" width="93.957" height="3.369"/>
	<rect x="173.188" y="181.231" style="fill:#FFFFFF;" width="77.986" height="3.363"/>
	<rect x="153.801" y="196.872" style="fill:#FFFFFF;" width="63.224" height="3.363"/>
	<rect x="173.188" y="203.181" style="fill:#FFFFFF;" width="67.908" height="3.373"/>
	<rect x="173.188" y="209.524" style="fill:#FFFFFF;" width="20.467" height="3.369"/>
	<rect x="185.509" y="215.833" style="fill:#FFFFFF;" width="77.705" height="3.369"/>
	<rect x="173.188" y="222.175" style="fill:#FFFFFF;" width="28.084" height="3.369"/>
	<rect x="153.801" y="237.812" style="fill:#FFFFFF;" width="43.791" height="3.369"/>
	<rect x="173.353" y="244.128" style="fill:#FFFFFF;" width="54.576" height="3.369"/>
	<rect x="173.353" y="250.451" style="fill:#FFFFFF;" width="33.567" height="3.356"/>
	<rect x="153.801" y="266.108" style="fill:#FFFFFF;" width="97.376" height="3.363"/>
	<rect x="173.188" y="272.417" style="fill:#FFFFFF;" width="24.404" height="3.369"/>
	<rect x="173.188" y="278.759" style="fill:#FFFFFF;" width="47.755" height="3.369"/>
	<rect x="196.344" y="285.068" style="fill:#FFFFFF;" width="72.519" height="3.363"/>
	<rect x="153.801" y="300.693" style="fill:#FFFFFF;" width="57.707" height="3.363"/>
	<rect x="173.188" y="307.035" style="fill:#FFFFFF;" width="69.368" height="3.356"/>
</g>
<path style="fill:#242D3C;" d="M218.565,142.683c0-4.786,3.904-8.717,8.701-8.717h142.637c4.783,0,8.697,3.928,8.697,8.717v214.832
	c0,4.786-3.914,8.691-8.697,8.691H227.265c-4.796,0-8.701-3.904-8.701-8.691V142.683z"/>
<g>
	<path style="fill:#3E4959;" d="M289.752,356.504c-2.131,0-3.868-1.734-3.868-3.871v-0.961c0-2.134,1.737-3.871,3.868-3.871h17.659
		c2.131,0,3.871,1.734,3.871,3.871v0.961c0,2.134-1.741,3.871-3.871,3.871H289.752z"/>
	<path style="fill:#3E4959;" d="M298.565,149.303c-2.203,0-3.964-1.774-3.964-3.994c0-2.18,1.761-3.987,3.964-3.987
		c2.197,0,3.99,1.807,3.99,3.987C302.556,147.529,300.762,149.303,298.565,149.303z"/>
</g>
<path style="fill:#D9D8D7;" d="M298.579,146.98c-0.922,0-1.652-0.743-1.652-1.665c0-0.922,0.73-1.665,1.652-1.665
	c0.918,0,1.671,0.743,1.671,1.665C300.25,146.237,299.497,146.98,298.579,146.98z"/>
<rect x="227.629" y="156.672" style="fill:#FFFFFF;" width="141.877" height="181.44"/>
<rect x="233.241" y="187.547" style="fill:#FF6D3B;" width="28.335" height="28.328"/>
<rect x="267.224" y="187.547" style="fill:#21D8DE;" width="28.335" height="28.328"/>
<rect x="301.221" y="187.547" style="fill:#FFD55C;" width="28.338" height="28.328"/>
<rect x="335.211" y="187.547" style="fill:#3E4959;" width="28.335" height="28.328"/>
<rect x="233.241" y="221.547" style="fill:#FFD55C;" width="28.335" height="28.335"/>
<rect x="267.224" y="221.547" style="fill:#3E4959;" width="28.335" height="28.335"/>
<rect x="301.221" y="221.547" style="fill:#21D8DE;" width="28.338" height="28.335"/>
<g>
	<rect x="335.211" y="221.547" style="fill:#FF6D3B;" width="28.335" height="28.335"/>
	<rect x="267.224" y="255.538" style="fill:#FF6D3B;" width="28.335" height="28.342"/>
</g>
<rect x="301.221" y="255.538" style="fill:#CCCBCA;" width="28.338" height="28.342"/>
<rect x="335.211" y="255.538" style="fill:#FFD55C;" width="28.335" height="28.342"/>
<rect x="233.241" y="303.831" style="fill:#FF6D3B;" width="28.335" height="28.342"/>
<g>
	<rect x="267.224" y="303.831" style="fill:#CCCBCA;" width="28.335" height="28.342"/>
	<rect x="227.629" y="156.672" style="fill:#CCCBCA;" width="141.877" height="24.982"/>
</g>
<path style="fill:#F15424;" d="M133.404,381.869v32.685h245.195v-32.685L133.404,381.869L133.404,381.869z M145.656,403.169
	c-2.735,0-4.955-2.22-4.955-4.955s2.22-4.955,4.955-4.955c2.735,0,4.955,2.22,4.955,4.955S148.391,403.169,145.656,403.169z"/>
<g>
	<rect x="365.205" y="381.886" style="fill:#FFFFFF;" width="2.283" height="6.071"/>
	<rect x="352.917" y="381.886" style="fill:#FFFFFF;" width="2.283" height="6.071"/>
	<rect x="340.662" y="381.886" style="fill:#FFFFFF;" width="2.283" height="6.071"/>
	<rect x="328.407" y="381.886" style="fill:#FFFFFF;" width="2.283" height="6.071"/>
	<rect x="316.152" y="381.886" style="fill:#FFFFFF;" width="2.283" height="6.071"/>
	<rect x="303.897" y="381.886" style="fill:#FFFFFF;" width="2.283" height="6.071"/>
	<rect x="291.642" y="381.886" style="fill:#FFFFFF;" width="2.283" height="6.071"/>
	<rect x="279.387" y="381.886" style="fill:#FFFFFF;" width="2.283" height="6.071"/>
	<rect x="267.132" y="381.886" style="fill:#FFFFFF;" width="2.283" height="6.071"/>
	<rect x="254.844" y="381.886" style="fill:#FFFFFF;" width="2.283" height="6.071"/>
	<rect x="242.589" y="381.886" style="fill:#FFFFFF;" width="2.283" height="6.071"/>
	<rect x="230.334" y="381.886" style="fill:#FFFFFF;" width="2.283" height="6.071"/>
	<rect x="218.079" y="381.886" style="fill:#FFFFFF;" width="2.283" height="6.071"/>
	<rect x="205.824" y="381.886" style="fill:#FFFFFF;" width="2.283" height="6.071"/>
	<rect x="193.569" y="381.886" style="fill:#FFFFFF;" width="2.283" height="6.071"/>
	<rect x="181.301" y="381.886" style="fill:#FFFFFF;" width="2.283" height="6.071"/>
	<rect x="169.026" y="381.886" style="fill:#FFFFFF;" width="2.283" height="6.071"/>
	<rect x="156.771" y="381.886" style="fill:#FFFFFF;" width="2.283" height="6.071"/>
	<rect x="144.513" y="381.886" style="fill:#FFFFFF;" width="2.283" height="6.071"/>
</g>
<g>
</g>
<g>
</g>
<g>
</g>
<g>
</g>
<g>
</g>
<g>
</g>
<g>
</g>
<g>
</g>
<g>
</g>
<g>
</g>
<g>
</g>
<g>
</g>
<g>
</g>
<g>
</g>
<g>
</g>
</svg>
