<?xml version="1.0" ?>
<!-- Uploaded to: SVG Repo, www.svgrepo.com, Generator: SVG Repo Mixer Tools -->
<svg width="800px" height="800px" viewBox="0 0 512 512" id="Layer_1" version="1.1" xml:space="preserve" xmlns="http://www.w3.org/2000/svg" xmlns:xlink="http://www.w3.org/1999/xlink">
<style type="text/css">
	.st0{fill:#D3D9D9;}
	.st1{fill:#A8B2B4;}
	.st2{fill:#EDEDED;}
	.st3{fill:#D4F0FC;}
	.st4{fill:#FFFFFF;}
	.st5{fill:#7C8B8E;}
	.st6{fill:#FB8A8A;}
	.st7{fill:#FCB1B1;}
	.st8{fill:#F96363;}
	.st9{fill:#333333;}
	.st10{fill:#7AD1F9;}
	.st11{fill:#A6E1FB;}
	.st12{fill:#4CC3F7;}
	.st13{fill:#FDDD8D;}
	.st14{fill:#FDD267;}
	.st15{fill:#E8EAEA;}
</style>
<g>
<g>
<g>
<g>
<g>
<g>
<g>
<path class="st0" d="M29.1,412.7v31.1c0,7.7,6.2,14,14,14h425.7c7.7,0,14-6.2,14-14v-31.1H29.1z"/>
</g>
</g>
</g>
<g>
<g>
<g>
<path class="st1" d="M435.3,457.8h33.6c7.7,0,13.9-6.2,13.9-13.9v-31.1h-33.5v31.1C449.3,451.5,443.1,457.8,435.3,457.8z"/>
</g>
</g>
</g>
<g>
<g>
<g>
<path class="st2" d="M76.6,457.8H43.1c-7.7,0-13.9-6.2-13.9-13.9v-31.1h33.5v31.1C62.7,451.5,68.9,457.8,76.6,457.8z"/>
</g>
</g>
</g>
<g>
<g>
<g>
<path class="st3" d="M482.8,122.8v289.9H29.2V122.8c0-7.7,6.2-14,13.9-14h425.7C476.5,108.8,482.8,115.1,482.8,122.8z"/>
</g>
</g>
</g>
<polygon class="st4" points="323.5,508 188.4,508 211.2,457.8 300.8,457.8     "/>
<path class="st4" d="M174.3,508"/>
</g>
</g>
<g>
<g>
<path class="st5" d="M240.3,435.3c0,3.6-2.9,6.4-6.4,6.4c-3.5,0-6.4-2.9-6.4-6.4c0-3.5,2.9-6.4,6.4-6.4      C237.5,428.8,240.3,431.8,240.3,435.3z"/>
</g>
<g>
<path class="st5" d="M262.4,435.3c0,3.6-2.9,6.4-6.4,6.4c-3.5,0-6.4-2.9-6.4-6.4c0-3.5,2.9-6.4,6.4-6.4      C259.6,428.8,262.4,431.8,262.4,435.3z"/>
</g>
<g>
<path class="st5" d="M284.5,435.3c0,3.6-2.9,6.4-6.4,6.4c-3.5,0-6.4-2.9-6.4-6.4c0-3.5,2.9-6.4,6.4-6.4      C281.6,428.8,284.5,431.8,284.5,435.3z"/>
</g>
</g>
</g>
<g>
<g>
<g>
<g>
<rect class="st4" height="355.4" width="369.1" x="71.4" y="57.4"/>
</g>
</g>
</g>
<g>
<g>
<g>
<rect class="st2" height="355.4" width="25.7" x="414.8" y="57.4"/>
</g>
</g>
</g>
<g>
<g>
<g>
<path class="st6" d="M440.6,14v43.4H71.4V13.9c0-5.5,4.4-9.9,9.9-9.9h349.3C436.1,4,440.6,8.4,440.6,14z"/>
</g>
</g>
</g>
<g>
<g>
<g>
<path class="st7" d="M107.2,4c-5.5,0-9.9,4.4-9.9,9.9v43.4H71.4V13.9c0-5.5,4.4-9.9,9.9-9.9H107.2z"/>
</g>
</g>
</g>
<g>
<g>
<g>
<path class="st8" d="M440.6,14v43.4h-25.8V14c0-5.5-4.4-10-9.9-10h25.8C436.1,4,440.6,8.4,440.6,14z"/>
</g>
</g>
</g>
<g>
<g>
<g>
<path class="st9" d="M107.6,34.7H101c-2.2,0-4-1.8-4-4s1.8-4,4-4h6.7c2.2,0,4,1.8,4,4S109.9,34.7,107.6,34.7z"/>
</g>
<g>
<path class="st9" d="M140.1,34.7h-6.7c-2.2,0-4-1.8-4-4s1.8-4,4-4h6.7c2.2,0,4,1.8,4,4S142.3,34.7,140.1,34.7z"/>
</g>
<g>
<path class="st9" d="M172.5,34.7h-6.7c-2.2,0-4-1.8-4-4s1.8-4,4-4h6.7c2.2,0,4,1.8,4,4S174.7,34.7,172.5,34.7z"/>
</g>
</g>
<g>
<path class="st9" d="M411,34.7H227.9c-2.2,0-4-1.8-4-4s1.8-4,4-4H411c2.2,0,4,1.8,4,4S413.2,34.7,411,34.7z"/>
</g>
</g>
<path class="st9" d="M468.8,104.8h-24.3V14c0-7.7-6.2-14-13.9-14H81.4c-7.7,0-13.9,6.2-13.9,13.9v90.9H43.1c-9.9,0-17.9,8-17.9,18    l0,321c0,9.9,8.1,18,18,18h161.8L185.8,504h-11.6c-2.2,0-4,1.8-4,4s1.8,4,4,4h163.4c2.2,0,4-1.8,4-4s-1.8-4-4-4h-11.6L307,461.8    h161.8c9.9,0,18-8.1,18-18l0-321C486.8,112.9,478.7,104.8,468.8,104.8z M75.4,13.9c0-3.3,2.7-5.9,5.9-5.9h349.3    c3.3,0,5.9,2.7,5.9,6v39.4H75.4V13.9z M75.4,61.4h361.1v347.4H75.4V61.4z M33.2,122.8c0-5.5,4.4-10,9.9-10h24.3v295.9H33.2V122.8z     M317.3,504H194.6l19.1-42.2h84.5L317.3,504z M478.8,443.8c0,5.5-4.5,10-10,10H43.1c-5.5,0-10-4.5-10-10v-27.1h445.7V443.8z     M478.8,408.7h-34.3V112.8h24.3c5.4,0,10,4.6,10,10V408.7z"/>
</g>
<g>
<g>
<g>
<g>
<path class="st6" d="M168.2,203.1l30.4,73.5l-44.5,18.4c-3.2,1.3-6.9-0.2-8.2-3.4l-25.7-61.9c-1.3-3.2,0.2-6.9,3.4-8.2       L168.2,203.1z"/>
</g>
<g>
<path class="st8" d="M193.3,263.7l5.4,12.9l-44.5,18.4c-3.2,1.3-6.9-0.2-8.2-3.4l-5.4-12.9c1.3,3.2,5,4.7,8.2,3.4L193.3,263.7z       "/>
</g>
<g>
<path class="st7" d="M168.2,203.2l5.4,12.9l-44.5,18.4c-3.2,1.3-4.7,5-3.4,8.2l-5.4-12.9c-1.3-3.2,0.2-6.9,3.4-8.2L168.2,203.2       z"/>
</g>
<g>
<path class="st10" d="M106.1,245.2l18.9,45.6c1.3,3.2,5,4.7,8.2,3.4l11.9-4.9l-23.7-57.2l-11.9,4.9       C106.3,238.4,104.7,242,106.1,245.2z"/>
</g>
<g>
<path class="st11" d="M121.3,232.1l4.1,9.8l-11.9,4.9c-3.2,1.3-4.7,5-3.4,8.2l-4.1-9.8c-1.3-3.2,0.2-6.9,3.4-8.2L121.3,232.1z"/>
</g>
<g>
<path class="st12" d="M140.9,279.5l4.1,9.8l-11.9,4.9c-3.2,1.3-6.9-0.2-8.2-3.4l-4.1-9.8c1.3,3.2,5,4.7,8.2,3.4L140.9,279.5z"/>
</g>
<g>
<path class="st10" d="M287.1,197c20,48.4,45.5,85,60.7,89l-149.2-9.3l-30.4-73.5l98.9-112.1C259.1,104.7,267.1,148.6,287.1,197       z"/>
</g>
<g>
<path class="st12" d="M347.8,286l-149.2-9.3l-7.9-19l133.5,7.4C333.2,276.8,341.4,284.3,347.8,286z"/>
</g>
<g>
<path class="st11" d="M267.1,91.1c-3.3,5.7-3.9,16.8-1.9,31.4l-89.2,99.6l-7.9-19L267.1,91.1z"/>
</g>
<g>
<path class="st4" d="M337.3,176.2c22.7,54.8,29.9,103.8,16,109.6c-13.9,5.7-43.5-34-66.2-88.8c-22.7-54.8-29.9-103.8-16-109.6       C285,81.6,314.6,121.4,337.3,176.2z"/>
</g>
<g>
<path class="st2" d="M337.3,176.2c22.7,54.8,29.8,103.8,16,109.6c-7.7,3.2-20.4-7.8-34-27.6c6.7,6.2,12.6,8.8,16.9,7       c13.8-5.7,6.7-54.8-16-109.6c-10-24.2-21.4-45.4-32.2-61.1C302.8,108,321.7,138.5,337.3,176.2z"/>
</g>
<g>
<path class="st13" d="M325.1,181.2c7.2,17.4-1.1,37.3-18.5,44.5l-5.2,2.2c-4.9-9.5-9.8-20-14.3-31c-4.6-11-8.5-21.8-11.8-32       l5.2-2.2C298,155.5,317.9,163.8,325.1,181.2z"/>
</g>
<g>
<path class="st14" d="M325.1,181.2c7.2,17.4-1.1,37.3-18.5,44.5l-5.2,2.2c-2.4-4.6-4.8-9.5-7.1-14.5       c16.8-7.5,24.7-27,17.6-44.2c-0.8-1.9-1.7-3.6-2.7-5.3C316.2,167.5,321.9,173.5,325.1,181.2z"/>
</g>
</g>
<g>
<g>
<path class="st0" d="M205.3,309.2c3.1,7.5-2.6,9.9,0.5,17.4c3.1,7.6,8.9,5.2,12,12.7c3.1,7.6-2.6,9.9,0.5,17.4       c3.1,7.6,8.9,5.2,12,12.7l-31.9,13.2c-3.6,1.5-7.8-0.2-9.3-3.8L154.3,295l38.5-16c3.1,7.6-2.6,9.9,0.5,17.5       C196.4,304.1,202.2,301.7,205.3,309.2z"/>
</g>
<g>
<path class="st15" d="M193.3,296.6c0.1,0.2,0.1,0.3,0.2,0.5l-32.8,13.6l-6.5-15.6l38.6-16C195.9,286.6,190.2,289,193.3,296.6z"/>
</g>
<g>
<path class="st1" d="M230.3,369.5l-32,13.2c-3.6,1.5-7.8-0.2-9.3-3.8l-6.5-15.6c1.5,3.6,5.7,5.3,9.3,3.8l26.2-10.9       c0,0.2,0.1,0.3,0.2,0.5C221.4,364.4,227.2,362,230.3,369.5z"/>
</g>
<path class="st9" d="M341,174.6c-21.2-51.1-52.5-98.8-71.4-91c-3.1,1.3,4.8-7.1-103.8,116.1l-43.6,18.1c-4.6,1.9-7.3,6.9-6,12      l-8.3,3.4c-5.3,2.2-7.7,8.2-5.6,13.4l18.9,45.6c2.1,5.2,8.1,7.8,13.4,5.6l8.4-3.5c1.9,3.2,5.2,5.1,8.8,5.1c0,0,0,0,0,0      l33.5,80.9c2.4,5.7,8.9,8.3,14.5,6l31.9-13.2c1-0.4,1.8-1.2,2.2-2.2s0.4-2.1,0-3.1c-4.4-10.6-15.1-7.4-12.1-18.8      c2.3-8.5-0.5-15.2-8.1-19.6c-4.5-2.6-5.7-5.6-4.4-10.6c2.2-8.4-0.5-15.2-8.1-19.6c-4.4-2.6-5.7-5.6-4.4-10.6      c0.5-1.9,1.1-4.3,0.7-7.4l1.8-0.7c151.5,9.7,150.4,10.9,155.5,8.7C373.7,281.6,362.2,225.8,341,174.6z M131.6,290.5      c-1.2,0.5-2.5-0.1-3-1.2l-18.9-45.6c-0.5-1.1,0.1-2.5,1.2-3l8.2-3.4l20.6,49.8L131.6,290.5z M149.7,290.2L124,228.2      c-0.5-1.2,0.1-2.5,1.2-3l40.8-16.9l27.4,66.1l-40.7,16.9c0,0,0,0,0,0l-0.1,0C151.5,291.8,150.2,291.3,149.7,290.2z M189.7,284.7      c-0.1,0.6-0.3,1.3-0.5,2.1c-2.2,8.4,0.5,15.1,8.1,19.5c4.4,2.6,5.7,5.6,4.4,10.6c-2.2,8.4,0.5,15.2,8.1,19.6      c4.5,2.6,5.7,5.7,4.4,10.6c-2.2,8.4,0.5,15.1,8.1,19.5c0.7,0.4,1.3,0.7,1.8,1.1l-27.3,11.3c-1.6,0.7-3.4-0.1-4.1-1.7l-33.2-80.2      C160.5,296.8,190.1,284.5,189.7,284.7z M201.4,272.8l-28.5-68.9l87.2-98.8c-0.8,27.2,12.8,68,23.4,93.4      c10.6,25.6,29.8,63.9,49.5,82.6L201.4,272.8z M280.3,167.2l1.8-0.7c15.3-6.3,33,1,39.3,16.3s-1,33-16.3,39.3l-1.8,0.7      c-4.4-8.6-8.6-17.8-12.5-27.4C286.9,185.9,283.3,176.4,280.3,167.2z M351.8,282c-11.9,5-38.6-40.6-44.7-52.1l1.2-0.5      c19.4-8,28.7-30.4,20.6-49.8c-8-19.4-30.4-28.7-49.8-20.6l-1.2,0.5c-3.8-12.5-17.2-63.5-5.2-68.5c15.9-6.6,50.8,62.2,60.9,86.6      C358.1,236.9,360.7,278.4,351.8,282z"/>
</g>
</g>
<g>
<g>
<path class="st9" d="M397.9,236.6l-19.8-7.4c-2.1-0.8-3.1-3.1-2.3-5.2c0.8-2.1,3.1-3.1,5.2-2.3l19.8,7.4      c2.1,0.8,3.1,3.1,2.3,5.2C402.2,236.4,399.9,237.4,397.9,236.6z"/>
</g>
<g>
<path class="st9" d="M385.3,195.6c-2.2,0-3.9-1.7-4-3.9c-0.1-2.2,1.7-4,3.9-4.1l21.2-0.5c0,0,0.1,0,0.1,0c2.2,0,3.9,1.7,4,3.9      c0.1,2.2-1.7,4-3.9,4.1C406.1,195.2,383.9,195.7,385.3,195.6z"/>
</g>
<g>
<path class="st9" d="M374.7,160.7c-0.8-2,0.1-4.4,2.2-5.2l19.5-8.1c2-0.8,4.4,0.1,5.2,2.2c0.8,2-0.1,4.4-2.2,5.2l-19.5,8.1      C377.9,163.7,375.5,162.7,374.7,160.7z"/>
</g>
<g>
<path class="st9" d="M357.4,134.1c-1.5-1.6-1.5-4.1,0.1-5.7l15.3-14.6c1.6-1.5,4.1-1.5,5.7,0.1c1.5,1.6,1.5,4.1-0.1,5.7      L363,134.2C361.4,135.7,358.9,135.7,357.4,134.1z"/>
</g>
<g>
<path class="st9" d="M330.6,115.1c-2-0.9-2.9-3.3-2-5.3l8.7-19.3c0.9-2,3.3-2.9,5.3-2c2,0.9,2.9,3.3,2,5.3l-8.7,19.3      C335,115.2,332.6,116,330.6,115.1z"/>
</g>
</g>
</g>
</g>
</svg>