<?xml version="1.0" encoding="iso-8859-1"?>
<!-- Generator: Adobe Illustrator 19.0.0, SVG Export Plug-In . SVG Version: 6.00 Build 0)  -->
<svg version="1.1" id="Layer_1" xmlns="http://www.w3.org/2000/svg" xmlns:xlink="http://www.w3.org/1999/xlink" x="0px" y="0px"
	 viewBox="0 0 512 512" style="enable-background:new 0 0 512 512;" xml:space="preserve">
<circle style="fill:#FF6D3B;" cx="256" cy="256" r="256"/>
<g>
	<polygon style="fill:#242D3C;" points="336.681,421.67 276.847,278.858 260.337,285.973 316.598,421.67 	"/>
	<polygon style="fill:#242D3C;" points="195.402,421.67 251.666,285.973 235.153,278.858 175.319,421.67 	"/>
	<rect x="213.157" y="360.316" style="fill:#242D3C;" width="85.659" height="10.937"/>
</g>
<rect x="97.445" y="311.362" style="fill:#3E4959;" width="317.11" height="15.31"/>
<rect x="206.452" y="110.163" style="fill:#242D3C;" width="99.097" height="15.31"/>
<rect x="118.916" y="125.463" style="fill:#FFFFFF;" width="274.168" height="185.873"/>
<rect x="118.916" y="260.955" style="fill:#21D8DE;" width="274.168" height="50.401"/>
<g>
	<polygon style="fill:#3E4959;" points="235.352,237.006 211.4,260.955 259.303,260.955 	"/>
	<polygon style="fill:#3E4959;" points="344.087,224.071 307.2,260.955 380.978,260.955 	"/>
</g>
<polygon style="fill:#242D3C;" points="184.33,203.974 127.349,260.955 241.311,260.955 "/>
<circle style="fill:#FFD55C;" cx="205.229" cy="165.954" r="17.616"/>
<g>
	<path style="fill:#D9D8D7;" d="M339.01,160.936c-0.377,0-0.75,0.033-1.107,0.109c0-0.02,0-0.04,0-0.059
		c0-4.915-3.987-8.902-8.899-8.902c-4.152,0-7.644,2.844-8.625,6.689c-0.456-0.102-0.925-0.155-1.407-0.155
		c-3.587,0-6.501,2.91-6.501,6.504s2.913,6.497,6.501,6.497h20.037c2.953,0,5.345-2.388,5.345-5.341
		C344.355,163.325,341.96,160.936,339.01,160.936z"/>
	<path style="fill:#D9D8D7;" d="M247.207,187.709c0.007,0,0.01,0.007,0.013,0.007c-0.003-0.149-0.013-0.291-0.013-0.439
		c0-8.36,6.775-15.135,15.135-15.135c6.828,0,12.602,4.529,14.488,10.749c1.143-0.535,2.411-0.832,3.756-0.832
		c4.872,0,8.816,3.947,8.816,8.82c0,1.123-0.208,2.193-0.591,3.181c0.099,0,0.195-0.013,0.294-0.013
		c3.122,0,5.655,2.537,5.655,5.658c0,3.122-2.534,5.652-5.655,5.652h-41.898c-4.876,0-8.823-3.947-8.823-8.826
		C238.384,191.656,242.331,187.709,247.207,187.709z"/>
</g>
<g>
</g>
<g>
</g>
<g>
</g>
<g>
</g>
<g>
</g>
<g>
</g>
<g>
</g>
<g>
</g>
<g>
</g>
<g>
</g>
<g>
</g>
<g>
</g>
<g>
</g>
<g>
</g>
<g>
</g>
</svg>
